<?xml version="1.0" encoding="utf-8"?>
<!-- Generator: Adobe Illustrator 27.5.0, SVG Export Plug-In . SVG Version: 6.00 Build 0)  -->
<svg version="1.1" id="Layer_1" xmlns="http://www.w3.org/2000/svg" xmlns:xlink="http://www.w3.org/1999/xlink" x="0px" y="0px"
	 viewBox="0 0 4000 4000" style="enable-background:new 0 0 4000 4000;" xml:space="preserve">
<g>
	<g>
		<rect x="0.045" y="0.045" style="fill:#FFB685;" width="3999.91" height="3999.91"/>
	</g>
	<g>
		<g style="opacity:0.25;">
			<ellipse style="fill:#020475;" cx="2063.057" cy="3530.635" rx="1035.515" ry="87.777"/>
		</g>
		<g>
			<g>
				<path style="fill:#F83752;" d="M1971.041,2023.298c0,0-339.938,188.837-514.383,113.871s-286.5-264.261-537.096-283.706
					s-385.062,151.694-389.137,353.393c0,0,209.849-217.998,462.482-134.466c0,0,2.037,46.403-42.785,186.191
					c-44.822,139.788,26.486,282.404,71.308,292.59s277.082-87.607,277.082-87.607s67.233,63.822,8.15,152.116
					c-59.084,88.293-85.569,179.975-26.486,220.722c59.084,40.747,100.332-16.978,176.483-105.264
					c0,0,167.555,12.185,141.547,261.443c0,0,568.558-388.091,617.915-702.897
					C2265.478,1974.877,1971.041,2023.298,1971.041,2023.298z"/>
			</g>
			<g style="opacity:0.5;">
				<path style="fill:#FFFFFF;" d="M534.232,2156.725c0,0,70.063-222.05,275.991-254.116
					c205.927-32.066,368.084,84.211,482.177,169.781c114.092,85.569,221.607,152.78,437.64,58.405c0,0-162.604,63.657-298.763-5.523
					c-136.16-69.18-226.061-202.25-419.482-255.92S563.847,1879.768,534.232,2156.725z"/>
			</g>
			<g style="opacity:0.25;">
				<path style="fill:#020475;" d="M1025.66,2085.824c0,0-2.193,68.441-26.641,150.425c-24.448,81.983-37.72,181.135,26.641,268.063
					c19.539,16.299,164.871-48.22,285.755-88.626c120.884-40.407,233.618-18.49,233.618-18.49s-152.178,24.425-211.574,54.056
					c0,0,44.77,58.154,42.602,109.088s-92.83,124.521-90.793,196.217s42.026,64.565,90.793,11.594
					c48.767-52.971,132.878-134.426,219.177-139.03c0,0-54.752,31.505-106.469,73.553c0,0,85.94,34.917,121.527,99.094
					c35.587,64.177,15.213,159.933,15.213,159.933h5.805c0,0,216.688-140.316,390.503-336.204
					c173.815-195.888,220.252-346.502,194.303-460.126c-25.949-113.624-330.168-1.978-502.665,41.486
					c-172.497,43.464-358.107,11.215-443.232-10.691c-85.125-21.906-228.74-103.401-228.74-103.401L1025.66,2085.824z"/>
			</g>
			<g>
				<path style="fill:#020475;" d="M1598.205,3007.119c-2.573,0-5.151-0.681-7.451-2.053c-4.858-2.9-7.598-8.362-7.007-13.994
					c9.023-86.504-4.697-152.404-40.785-195.87c-29.096-35.043-65.56-45.541-80.526-48.493c-4.175,4.861-8.247,9.624-12.217,14.27
					c-65.667,76.834-113.118,132.348-178.299,87.391c-59.322-40.915-50.853-130.925,22.658-240.776
					c41.405-61.878,13.488-109.404-0.037-126.611c-55.106,22.905-232.375,94.344-276.336,84.363
					c-19.013-4.321-39.184-23.698-56.796-54.564c-31.728-55.6-57.347-156.176-25.134-256.642
					c32.043-99.929,39.716-151.388,41.54-171.253c-236.167-70.279-434.914,131.977-436.924,134.06
					c-4.155,4.302-10.529,5.627-16.044,3.332c-5.522-2.297-9.079-7.737-8.96-13.716c2.305-114.094,44.23-213.794,118.052-280.738
					c72.508-65.753,171.673-95.786,286.746-86.856c162.257,12.588,266.225,93.118,366.769,170.997
					c57.66,44.664,112.126,86.851,174.942,113.845c27.05,11.623,58.558,16.494,92.317,16.499
					c173.238,0.015,406.47-128.171,409.263-129.721c1.46-0.811,3.052-1.365,4.702-1.636c5.415-0.891,133.361-20.893,211.177,56.341
					c49.472,49.105,66.507,125.359,50.629,226.64c-20.996,133.884-132.692,294.691-331.99,477.951
					c-147.38,135.52-290.662,233.728-292.093,234.704C1603.938,3006.272,1601.072,3007.119,1598.205,3007.119z M1456.656,2716.599
					c0.351,0,0.703,0.012,1.055,0.039c2.495,0.181,61.634,5.068,107.146,59.42c36.947,44.123,53.773,106.865,50.165,186.807
					c109.797-79.146,544.778-407.837,586.735-675.431c14.355-91.546,0.093-159.34-42.382-201.502
					c-62.127-61.664-166.749-50.832-183.653-48.617c-33.29,18.193-351.657,187.623-524.807,113.21
					c-66.209-28.454-122.097-71.742-181.265-117.571c-97.161-75.26-197.63-153.08-351.213-164.996
					c-106.907-8.306-198.533,19.162-264.965,79.407c-60.182,54.574-97.305,133.359-106.409,224.47
					c23.999-20.429,62.958-50.119,113.115-76.412c113.533-59.52,230.175-72.257,337.292-36.838
					c5.732,1.895,9.697,7.134,9.961,13.166c0.088,2,1.636,50.619-43.463,191.265c-29.33,91.478-6.106,182.879,22.697,233.357
					c15.481,27.128,30.138,38.834,37.987,40.619c27.726,6.321,173.561-46.974,268.219-86.827c5.32-2.239,11.46-1.121,15.651,2.854
					c0.762,0.723,75.372,73.389,10.222,170.746c-23.798,35.565-96.321,155.146-30.314,200.669
					c41.945,28.923,71.349-2.385,139.687-82.347c5.64-6.599,11.474-13.427,17.529-20.449
					C1448.419,2718.427,1452.447,2716.599,1456.656,2716.599z"/>
			</g>
			<g>
				<path style="fill:#020475;" d="M997.911,2058.74c75.099,28.366,144.621,67.278,216.048,102.902
					c50.656,23.044,104.806,36.557,160.038,46.065c44.366,7.143,89.077,12.59,134.338,18.336c0.682,0.065,1.183,0.684,1.094,1.366
					c-44.447,8.969-92.772,4.743-138.284,0.305c-51.149-6.455-102.891-16.499-151.691-35.161
					c-37.716-14.191-72.273-34.562-108.708-51.3c-40.537-19.25-81.575-38.791-123.151-55.333
					C970.095,2078.719,979.762,2052.499,997.911,2058.74L997.911,2058.74z"/>
			</g>
			<g>
				<path style="fill:#020475;" d="M1293.311,2449.988c43.466-16.825,87.65-29.332,132.957-39.433
					c39.469-8.14,79.582-17.165,120.098-16.076c5.844,0.295,11.674,0.63,17.536,1.513c1.199,0.156,1.467,1.985,0.276,2.405
					c-43.391,16.537-87.721,23.159-131.545,37.026c-42.612,12.437-87.511,27.167-129.196,41.814
					C1285.587,2483.071,1275.893,2457.311,1293.311,2449.988L1293.311,2449.988z"/>
			</g>
			<g>
				<path style="fill:#020475;" d="M1446.583,2720.656c23.965-23.47,49.932-43.597,77.685-62.103
					c28.305-17.389,56.599-37.625,91.031-40.144c1.138-0.091,1.832,1.439,0.958,2.21c-12.536,11.871-25.39,20.97-38.633,29.916
					c-39.031,27.46-75.375,59.438-110.892,91.083C1452.625,2754.171,1433.478,2734.298,1446.583,2720.656L1446.583,2720.656z"/>
			</g>
		</g>
		<g>
			<g>
				<g>
					<path style="fill:#0394ED;" d="M1585.393,2944.482c-76.296,142.013-155.976,288.557-160.563,303.468
						c-8.151,26.486,59.083,213.923,134.466,234.297c75.382,20.374,279.119,24.449,311.716-6.112
						c50.935-65.196-14.26-173.176-14.26-173.176c22.047-62.252,61.027-126.353,103.916-184.832l-0.01-0.004
						C1692.145,3137.95,1589.643,2952.409,1585.393,2944.482z"/>
				</g>
				<g>
					<path style="fill:#706880;" d="M2370.167,2267.977c38.709,36.672,263.534,15.782,263.534,15.782h0.001
						c-33.572-164.017-71.344-333.612-71.344-333.612s-78.149,44.073-215.404,73.15l-0.001,0.006
						C2346.952,2023.304,2331.456,2231.304,2370.167,2267.977z"/>
				</g>
				<g>
					<path style="fill:#706880;" d="M1928.058,2241.491c16.552-44.137,58.384-179.237,66.345-205.04
						c-91.326-16.632-134.33-46.055-134.33-46.055c2.498,87.636-5.375,177.077-18.754,261.883l0.009,0.001
						C1841.328,2252.281,1923.983,2252.357,1928.058,2241.491z"/>
				</g>
				<g>
					<path style="fill:#17B966;" d="M2678.923,3052.144c-2.477-7.289-4.907-14.655-7.227-22.193
						c-57.046-185.4,28.524-344.315,10.187-484.893c-7.133-54.689-26.807-156.864-48.182-261.299h-0.001
						c0,0-224.824,20.89-263.534-15.782c-38.711-36.673-23.214-244.673-23.214-244.673l0.001-0.006
						c-44.641,9.457-95.5,17.337-152,21.587c-82.794,6.228-149.262,0.906-200.55-8.434c-7.962,25.803-49.793,160.902-66.345,205.04
						c-4.075,10.866-86.73,10.79-86.73,10.79l-0.009-0.001c-30.833,195.438-90.951,366.231-121.073,433.357
						c-18.434,41.079-75.625,148.597-134.854,258.845c4.251,7.927,106.752,193.468,375.264,173.641l0.01,0.004
						c91.863-125.252,201.689-224.679,201.689-224.679l52.971,8.149c9.554,108.904,44.19,219.6,78.288,306.464
						C2293.616,3208.059,2402.958,3071.62,2678.923,3052.144z"/>
				</g>
				<g>
					<path style="fill:#0394ED;" d="M2293.614,3208.062c38.623,98.39,76.553,166.205,76.553,166.205s-83.533,120.205-30.56,165.027
						c52.971,44.822,301.53,12.224,321.903,12.224c20.374,0,167.064-144.653,171.14-185.401
						c3.909-39.091-95.285-141.98-153.726-313.973C2402.958,3071.62,2293.616,3208.059,2293.614,3208.062z"/>
				</g>
			</g>
			<g style="opacity:0.5;">
				<path style="fill:#FFFFFF;" d="M2328.4,3506.186c0,0,35.145-72.836,72.326-102.887c37.182-30.051,176.291-68.761,176.291-68.761
					s-21.026-7.253-62.24-6.428c-41.214,0.825-115.578,26.801-115.578,26.801s-60.612-133.825-93.209-224.809
					c-32.598-90.983-56.028-221.375-65.196-229.524c-9.168-8.15-27.504-7.131-27.504-7.131s23.43,157.896,66.214,282.175
					c42.785,124.279,84.551,189.475,84.551,189.475l-1.528,17.318C2362.526,3382.416,2308.536,3454.743,2328.4,3506.186z"/>
			</g>
			<g style="opacity:0.5;">
				<path style="fill:#FFFFFF;" d="M1888.329,3425.201c0,0-47.878-80.985-63.668-94.228c-15.79-13.243-168.083-32.153-177.76-42.053
					s85.325-16.712,147.842-5.411c62.516,11.301,73.722,36.768,76.778,42.371
					C1874.577,3331.482,1891.277,3401.552,1888.329,3425.201z"/>
			</g>
			<g style="opacity:0.5;">
				<path style="fill:#FFFFFF;" d="M1430.043,3298.734c0,0,149.625-262.67,189.353-333.978
					c39.729-71.308,153.549-270.97,153.549-270.97s-36.394-7.245-38.425-7.358c-2.031-0.112-18.349,5.32-18.349,5.32
					l-183.812,351.282l-108.04,210.522C1424.319,3253.553,1420.203,3281.417,1430.043,3298.734z"/>
			</g>
			<g style="opacity:0.5;">
				<path style="fill:#FFFFFF;" d="M1813.023,2567.137c0,0,56.97-205.634,61.045-312.499c0.335-8.787,0.511-17.245,0.553-25.368
					c0.033-6.434-30.878,4.585-30.878,4.585s4.067,10.451-19.048,109.193c-23.115,98.742-49.855,202.019-51.749,203.369
					c-1.894,1.35,2.989,19.195,2.989,19.195L1813.023,2567.137z"/>
			</g>
			<g>
				<path style="fill:#FFFFFF;" d="M1765.615,2565.612c0,0,667.369,21.629,918.815,27.024c0,0-2.607,49.815-6.991,80.916
					c-4.384,31.101-17.268,57.586-17.268,57.586c-221.375-5.433-939.924-45.501-939.924-45.501S1753.258,2608.576,1765.615,2565.612
					z"/>
			</g>
			<g>
				<g>
					<path style="fill:#EFD25A;" d="M2119.817,2157.031c0.2-1.639,32.067-80.932,32.067-80.932l31.346,74.813l93.744,3.131
						l-67.007,59.473l25.773,84.115l-76.865-42.662l-76.723,56.068l21.102-95.581l-71.839-52.03L2119.817,2157.031z"/>
				</g>
				<g style="opacity:0.25;">
					<polygon style="fill:#020475;" points="2031.415,2163.425 2155.267,2198.239 2103.254,2215.455 					"/>
				</g>
				<g style="opacity:0.25;">
					<polygon style="fill:#020475;" points="2276.974,2154.042 2155.267,2198.239 2209.967,2213.515 					"/>
				</g>
				<g style="opacity:0.25;">
					<polygon style="fill:#020475;" points="2151.885,2076.099 2155.267,2198.239 2183.23,2150.912 					"/>
				</g>
				<g style="opacity:0.25;">
					<polygon style="fill:#020475;" points="2155.267,2198.239 2082.153,2311.036 2158.875,2254.968 2235.74,2297.63 					"/>
				</g>
				<g>
					<path style="fill:#020475;" d="M2082.155,2320.729c-1.841,0-3.687-0.522-5.298-1.577c-3.379-2.205-5.034-6.267-4.165-10.205
						l19.726-89.371l-66.688-48.302c-3.301-2.388-4.756-6.584-3.638-10.503c1.113-3.916,4.56-6.719,8.623-7.014l82.205-5.945
						c3.452-9.052,11.411-29.155,29.97-75.33c1.465-3.647,4.99-6.047,8.921-6.076c0.024,0,0.049,0,0.073,0
						c3.906,0,7.431,2.341,8.94,5.947l28.945,69.078l87.527,2.925c3.965,0.132,7.451,2.666,8.794,6.399
						c1.348,3.73,0.283,7.905-2.68,10.537l-62.347,55.338l23.945,78.16c1.157,3.779-0.098,7.883-3.169,10.371
						c-3.071,2.493-7.353,2.864-10.801,0.942l-71.448-39.652l-71.717,52.411C2086.173,2320.104,2084.166,2320.729,2082.155,2320.729
						z M2058.635,2171.174l50.302,36.432c3.13,2.263,4.614,6.169,3.779,9.939l-15.566,70.528l56.009-40.929
						c3.052-2.236,7.119-2.483,10.42-0.649l55.853,31l-18.73-61.141c-1.113-3.628-0.005-7.571,2.832-10.088l48.842-43.346
						l-69.466-2.322c-3.789-0.127-7.153-2.449-8.618-5.942l-22.211-53.011c-10.356,25.871-21.63,54.2-22.91,57.931
						c-1.064,3.921-4.507,6.823-8.657,7.124L2058.635,2171.174z M2119.815,2157.031h0.049H2119.815z"/>
				</g>
			</g>
			<g style="opacity:0.25;">
				<path style="fill:#020475;" d="M2322.036,3498.299c0,0,217.232,12.471,300.084-32.351
					c82.853-44.822,111.376-120.231,104.585-138.214c-6.791-17.984-58.405-132.076-107.301-267.901
					c-48.897-135.824-9.596-330.215-9.596-330.215l42.873,1.52c0,0,11.537,0.812,12.903,5.16
					c1.366,4.349-24.962,115.703-10.104,217.581c14.858,101.879,88.432,244.369,88.432,244.369s86.729,137.305,88.072,158.699
					c1.343,21.394-12.578,43.523-72.511,110.557s-97.964,84.013-97.964,84.013s-82.853,14.941-193.55,10.866
					C2357.263,3558.309,2320.086,3551.702,2322.036,3498.299z"/>
			</g>
			<g style="opacity:0.25;">
				<path style="fill:#020475;" d="M1888.329,3406.865c0,0-29.542,33.617-158.915,27.504c-129.373-6.112-170.12-30.56-189.475-62.14
					c-19.355-31.579-86.079-164.168-86.079-164.168l-29.542,45.491c0,0,39.273,144.204,88.143,195.618
					c48.87,51.413,171.621,47.848,250.569,47.338c78.948-0.51,100.593-13.138,110.018-26.486
					C1882.474,3456.676,1888.329,3406.865,1888.329,3406.865z"/>
			</g>
			<g style="opacity:0.25;">
				<path style="fill:#020475;" d="M1816.682,3283.943c0,0,108.027-252.972,280.138-413.905l50.311,18.87v13.369
					c0,0-108.62,106.073-206.631,244.209c0,0-40.053,57.667-57.827,96.432c-17.774,38.765-28.498,58.869-32.033,57.492
					c-3.535-1.377-34.323-11.49-34.323-11.49L1816.682,3283.943z"/>
			</g>
			<g style="opacity:0.25;">
				<path style="fill:#020475;" d="M1735.75,2648.375c0,0,653.771,25.038,732.209,26.056c78.439,1.019,81.456-85.123,81.456-85.123
					l104.623,2.644l23.757,0.539l6.634,0.144c0,0-3.897,56.661-7.636,85.018c-3.739,28.357-16.623,53.484-16.623,53.484
					l-699.505-32.463l-236.038-12.794l-3.177-3.077L1735.75,2648.375z"/>
			</g>
			<g style="opacity:0.25;">
				<path style="fill:#020475;" d="M2282.03,2557.938c0,0,124.13-10.163,194.759-46.836s124.958-362.651,124.958-362.651
					s69.503,328.908,71.89,343.192c2.386,14.284,9.265,87.924,6.209,97.665c-3.056,9.741-151.78-0.574-151.78-0.574l-230.334-9.192
					L2282.03,2557.938z"/>
			</g>
			<g style="opacity:0.25;">
				<path style="fill:#020475;" d="M1876.887,2008.552c0,0,82.947,95.113,274.997,95.077c192.05-0.036,362.935-123.6,362.935-123.6
					s-174.448,59.038-359.552,66.87s-278.38-47.115-278.38-47.115V2008.552z"/>
			</g>
			<g>
				<path style="fill:#020475;" d="M2660.169,2743.253c-0.098,0-0.195-0.002-0.298-0.005
					c-219.028-5.374-933.109-45.114-940.296-45.514c-3.945-0.22-7.539-2.351-9.624-5.71c-2.08-3.359-2.397-7.524-0.84-11.157
					c0.327-0.764,32.856-76.866,44.857-118.606c1.538-5.33,6.567-8.918,12.036-8.76c6.675,0.217,670.185,21.689,918.685,27.023
					c3.276,0.068,6.387,1.465,8.618,3.867c2.231,2.4,3.394,5.605,3.223,8.877c-0.107,2.056-2.686,50.704-7.095,81.973
					c-4.6,32.619-17.812,60.043-18.374,61.195C2669.031,2740.614,2664.798,2743.253,2660.169,2743.253z M1738.075,2674.49
					c109.123,6.028,706.673,38.754,914.257,44.325c3.867-9.446,10.346-27.343,13.11-46.957c2.939-20.844,5.093-50.712,6.152-67.386
					c-240.678-5.378-816.774-23.864-897.079-26.452C1764.632,2609.338,1747.519,2651.735,1738.075,2674.49z"/>
			</g>
			<g>
				<path style="fill:#020475;" d="M1921.636,3131.699c-123.645,0-208.252-44.162-258.983-83.36
					c-60.97-47.104-87.083-96.48-88.162-98.557c-3.091-5.935-0.781-13.252,5.156-16.34c5.918-3.083,13.242-0.784,16.328,5.137l0,0
					c0.249,0.471,25.278,47.452,82.425,91.306c76.458,58.668,171.124,84.292,281.361,76.156c6.572-0.488,12.48,4.514,12.978,11.191
					c0.488,6.672-4.521,12.48-11.191,12.973C1947.822,3131.218,1934.506,3131.699,1921.636,3131.699z"/>
			</g>
			<g>
				<path style="fill:#020475;" d="M2293.61,3220.164c-2.666,0-5.347-0.874-7.583-2.671c-5.205-4.189-6.045-11.794-1.865-17.006
					c4.6-5.74,115.847-140.805,393.907-160.426c6.704-0.488,12.47,4.555,12.939,11.232c0.474,6.675-4.556,12.466-11.23,12.937
					c-266.688,18.82-375.656,150.104-376.725,151.427C2300.66,3218.621,2297.15,3220.164,2293.61,3220.164z"/>
			</g>
			<g>
				<path style="fill:#020475;" d="M2505.963,2302.096c-60.56,0-123.02-5.322-144.133-25.324
					c-40.819-38.671-29.618-218.677-26.957-254.369c0.498-6.67,6.362-11.653,12.978-11.181c6.675,0.498,11.679,6.308,11.181,12.983
					c-5.815,78.206-5.679,211.155,19.462,234.975c25.283,23.96,169.273,20.388,254.086,12.517
					c6.582-0.617,12.563,4.28,13.183,10.942c0.615,6.662-4.282,12.565-10.942,13.183
					C2616.342,2297.541,2561.963,2302.096,2505.963,2302.096z"/>
			</g>
			<g>
				<path style="fill:#020475;" d="M1842.248,2264.397c-0.313,0-0.62,0-0.928,0c-6.694-0.007-12.109-5.437-12.104-12.126
					c0.005-6.687,5.43-12.106,12.114-12.106c0.132-0.025,0.313,0.002,0.469,0.002c30.009,0,65.926-2.361,76.043-5.976
					c18.828-51.315,65.833-204.048,66.312-205.618c1.968-6.394,8.755-9.985,15.141-8.017c6.396,1.965,9.985,8.745,8.022,15.141
					c-2.021,6.565-49.667,161.385-67.918,210.047C1936.958,2252.268,1932.407,2264.397,1842.248,2264.397z"/>
			</g>
			<g>
				<path style="fill:#020475;" d="M2471.443,3577.583c-64.208,0-117.141-6.809-141.227-27.192
					c-54.852-46.408,3.428-146.691,22.973-176.883c-23.222-43.239-129.836-251.032-151.261-459.262l-34.848-5.361
					c-34.022,31.803-230.214,220.217-294.378,392.738c13.706,25.175,59.408,119.924,9.765,183.463
					c-0.459,0.591-0.967,1.145-1.514,1.655c-39.35,36.904-250.527,29.792-325.452,9.543c-40.043-10.823-73.499-58.504-94.514-96.599
					c-29.716-53.856-57.435-132.019-50.052-156.01c3.974-12.915,45.985-91.202,119.895-228.462
					c71.991-133.701,153.585-285.24,176.158-335.527c38.588-85.997,146.872-397.145,138.556-688.874
					c-0.156-5.469,2.769-10.564,7.573-13.181s10.664-2.319,15.185,0.779c0.976,0.667,104.207,68.617,325.564,51.979
					c223.852-16.84,360.007-92.149,361.359-92.906c4.004-2.256,8.838-2.485,13.051-0.608c4.204,1.875,7.275,5.622,8.271,10.112
					c1.016,4.551,101.541,456.581,119.753,596.193c7.744,59.359-2.192,120.698-12.709,185.638
					c-15.151,93.516-30.81,190.213,2.002,296.859c32.695,106.26,81.907,186.546,117.839,245.17
					c28.603,46.669,45.873,74.84,43.686,96.717c-2.91,29.086-53.539,85.55-83.455,116.618
					c-23.706,24.616-81.111,81.873-102.151,81.873c-2.646,0-12.973,0.952-24.931,2.056
					C2580.312,3573.303,2522.33,3577.583,2471.443,3577.583z M2162.353,2878.909c0.737,0,1.474,0.056,2.212,0.168l52.973,8.149
					c6.616,1.018,11.684,6.428,12.27,13.1c19.858,226.36,151.72,464.465,153.048,466.845c2.71,4.846,2.417,10.823-0.747,15.385
					c-19.692,28.39-68.036,116.086-33.115,145.636c26.342,22.285,122.199,25.981,284.915,10.962
					c14.14-1.304,21.899-2.007,26.142-2.151c25.249-9.8,154.894-139.945,158.131-172.335c1.216-12.136-18.583-44.432-39.54-78.628
					c-36.747-59.945-87.068-142.043-120.842-251.816c-34.809-113.137-17.866-217.754-2.915-310.056
					c10.171-62.782,19.775-122.082,12.583-177.23c-15.957-122.314-96.179-488.895-115.241-575.282
					c-43.983,21.186-169.323,73.668-356.183,87.725c-174.083,13.105-277.933-23.635-320.999-44.22
					c1.87,289.671-103.342,591.325-141.53,676.428c-22.998,51.244-104.861,203.274-177.086,337.407
					c-55.941,103.892-113.786,211.318-117.712,223.261c-4.912,25.402,60.506,198.692,124.372,215.955
					c80.584,21.782,269.901,20.288,297.244-2.041c42.65-56.635-15.439-154.718-16.035-155.709
					c-2.241-3.721-2.705-8.262-1.255-12.356c69.696-196.788,299.793-406.602,309.554-415.438
					C2155.288,2880.233,2158.774,2878.909,2162.353,2878.909z M2659.422,3537.232c0,0,0,0-0.005,0H2659.422z"/>
			</g>
			<g>
				<path style="fill:#020475;" d="M2361.812,3362.368c57.656-39.45,162.433-63.076,226.615-29.352
					c1.032,0.538,0.76,2.25-0.441,2.355c-19.778,2.336-37.929,1.503-56.291,2.677c-27.283,1.009-54.171,6.696-80.178,14.769
					c-25.329,8.422-51.136,19.668-73.668,33.777C2361.763,3396.344,2346.529,3373.421,2361.812,3362.368L2361.812,3362.368z"/>
			</g>
			<g>
				<path style="fill:#020475;" d="M1850.74,3316.197c-32.724-12.8-67.966-22.288-102.947-27.015
					c-36.718-6.042-71.102-1.019-108.676-1.367c-6.726-1.699,16.504-11.575,18.423-12.798c6.671-2.358,13.858-4.862,20.692-6.537
					c42.551-8.462,86.88-6.437,129.085,3.107c19.252,4.531,37.087,9.835,55.443,18.133c7.31,3.312,10.551,11.921,7.239,19.232
					C1866.688,3316.306,1857.999,3319.471,1850.74,3316.197L1850.74,3316.197z"/>
			</g>
			<g>
				<path style="fill:#020475;" d="M2158.632,2907.502c-24.604-6.165-47.295-15.447-69.669-26.908
					c-21.807-12.367-45.829-23.223-58.413-46.625c-0.522-0.958,0.403-2.187,1.469-1.925c13.23,2.396,23.907,6.917,34.621,11.86
					c20.829,9.294,44.406,17.584,66.11,24.81c0,0,33.328,10.68,33.328,10.68l0.429,0.138
					C2184.03,2885.564,2176.707,2911.473,2158.632,2907.502L2158.632,2907.502z"/>
			</g>
			<g>
				<g>
					<polygon style="fill:#FE8C07;" points="2276.64,2736.298 2118.329,2734.289 2039.789,2640.653 2119.727,2556.661 
						2282.03,2557.938 2343.889,2643.047 					"/>
				</g>
				<g style="opacity:0.25;">
					<polygon style="fill:#020475;" points="2059.896,2619.527 2137.385,2703.885 2291.522,2710.703 2276.363,2740.962 
						2118.329,2734.289 2039.789,2640.653 					"/>
				</g>
				<g style="opacity:0.5;">
					<polygon style="fill:#FFFFFF;" points="2099.244,2584.566 2263.905,2585.863 2326.36,2667.354 2343.889,2643.047 
						2280.668,2555.085 2119.727,2556.661 					"/>
				</g>
				<g>
					<path style="fill:#020475;" d="M2276.637,2748.414c-0.049,0-0.103-0.002-0.151-0.002l-158.307-2.01
						c-3.53-0.044-6.865-1.626-9.131-4.328l-78.543-93.635c-3.965-4.724-3.745-11.672,0.508-16.137l79.94-83.992
						c2.285-2.405,5.459-3.765,8.774-3.765c0.029,0,0.063,0.002,0.098,0.002l162.301,1.277c3.843,0.029,7.441,1.882,9.702,4.99
						l61.859,85.11c3.076,4.236,3.086,9.966,0.029,14.211l-67.25,93.25C2284.186,2746.544,2280.529,2748.414,2276.637,2748.414z
						 M2124.043,2722.246l146.452,1.858l58.436-81.029l-53.109-73.07l-150.939-1.189l-68.856,72.347L2124.043,2722.246z"/>
				</g>
			</g>
		</g>
		<g>
			<g>
				<g>
					<path style="fill:#0394ED;" d="M2675.771,2306.008c-3.395,26.486-21.619,79.983-21.619,79.983s-37.464,13.736-62.592,41.58
						c-25.127,27.844-8.149,61.121-8.149,61.121c-12.224,4.754-20.375,29.881-20.375,29.881
						c-35.313,4.075-46.179,47.039-46.179,47.039s-29.203,14.761-24.449,64.337c4.753,49.576,41.426,76.741,41.426,76.741
						s104.585,21.732,232.26-71.987c88.306-64.821,167.488-151.078,207.491-228.357
						C2886.341,2164.434,2675.771,2306.008,2675.771,2306.008z"/>
				</g>
				<g>
					<path style="fill:#706880;" d="M2825.857,2041.829c-122.242-106.623-286.59-124.279-286.59-124.279l-33.277,257.387
						c42.785,116.809,169.781,131.071,169.781,131.071s210.57-141.574,297.815,100.338c17.834-34.452,27.904-67.125,27.485-95.31
						C2999.712,2219.629,2948.099,2148.451,2825.857,2041.829z"/>
				</g>
			</g>
			<g style="opacity:0.5;">
				<path style="fill:#FFFFFF;" d="M2498.521,2645.908c0,0,11.625-35.52,24.658-46.028c0,0,27.804-45.144,38.5-53.293l10.392,35.328
					c0,0,16.093-51.117,24.243-62.323c8.149-11.206,31.623-17.827,31.623-17.827v30.561c0,0,16.765-49.915,41.722-55.009
					s53.481,5.603,53.481,5.603s-11.715-36.843-47.369-34.975c-35.654,1.868-48.897,27.844-53.99,28.863
					c-5.094,1.019-19.105,2.537-19.105,2.537s3.316-30.042,19.615-41.757c16.299-11.715,58.324-42.275,58.324-42.275
					s6.56-1.114,11.3-6.415c4.74-5.3,18.492-96.472,18.492-96.472s-34.127,12.766-35.787,20.785
					c-1.659,8.019-14.742,56.943-16.473,60.609c-1.731,3.666-3.195,8.866-17.521,17.418c-14.326,8.552-51.927,32.455-57.216,49.316
					c-5.29,16.86-2.131,39.09-3.272,39.2c-1.142,0.11-2.161,15.899-2.161,15.899l-19.355,21.393c0,0-16.815,10.348-23.939,17.827
					c-7.124,7.479-21.392,34.635-21.392,34.635s-9.168,7.867-18.336,36.022C2485.787,2633.684,2498.521,2645.908,2498.521,2645.908z
					"/>
			</g>
			<g style="opacity:0.5;">
				<path style="fill:#FFFFFF;" d="M2550.473,1923.662c0,0-13.927,9.087,13.489,21.847c42.515,19.787,151.078,56.386,201.651,92.925
					c83.186,60.102,217.248,187.438,217.248,187.438s-30.008-74.755-113.54-149.772s-160.574-106.609-209.15-128.504
					C2611.594,1925.699,2550.473,1923.662,2550.473,1923.662z"/>
			</g>
			<g style="opacity:0.25;">
				<path style="fill:#020475;" d="M2516.857,2676.469c0,0,80.476,25.467,248.559-105.943s209.849-306.624,192.531-383.025
					l-5.773-14.941c0,0,63.573,67.826,46.388,165.663c-17.186,97.837-130.604,228.376-252.158,310.152
					C2624.848,2730.151,2521.95,2717.216,2516.857,2676.469z"/>
			</g>
			<g style="opacity:0.25;">
				<path style="fill:#020475;" d="M2511.385,2188.129c0,0,134.071,70.764,211.368,62.063l42.86-20.195l-27.703,46.129
					c0,0-46.52,14.941-69.61,31.24C2668.301,2307.366,2555.49,2286.212,2511.385,2188.129z"/>
			</g>
			<g>
				<path style="fill:#020475;" d="M2539.785,1912.731c110.042-0.479,223.157,51.642,303.719,125.005
					c80.662,72.625,176.005,161.268,171.96,279.908c-7.149,135.743-198.108,319.513-316.734,373.811
					c-51.893,23.517-110.691,37.918-167.894,29.462c-4.229-0.684-7.777-4.237-10.582-6.649c-4.285-3.834-8.236-7.985-11.935-12.33
					c-34.547-38.795-48.626-117.257,1.976-149.302c0.001,0-7.534,9.408-7.534,9.408c7.648-27.579,28.329-54.663,58.608-57.915
					c0,0-12.162,9.956-12.162,9.956c6.16-15.782,12.032-31.068,28.932-38.945c0.001,0.001-7.68,20.156-7.68,20.156
					c-13.216-26.601-7.824-61.766,14.324-81.665c18.652-18.58,40.131-31.482,64.362-41.292c0,0-8.756,8.961-8.756,8.961
					c8.11-25.047,16.832-51.241,20.962-77.142c0,0,12.797,16.296,12.797,16.296c-20.334-2.88-39.062-8.567-58.03-15.91
					c-55.114-20.698-108.196-66.398-114.677-127.942c-0.557-4.913,6.285-7.671,9.101-3.333c11.111,15.383,21.368,29.762,33.136,42.7
					c11.571,13.035,24.315,24.701,38.274,35.027c27.648,20.778,61.347,35.643,95.736,40.6c7.95,1.019,13.561,8.316,12.505,16.26
					c-2.116,14.963-5.804,28.35-9.745,42.508c-3.872,13.609-8.027,26.86-12.533,40.313c-1.408,4.204-4.569,7.325-8.397,8.824
					c-9.581,3.702-20.085,9.18-29.026,14.772c-24.946,15.9-47.996,36.206-34.128,67.811c-0.001,0-7.682,20.156-7.682,20.156
					c0.42-0.217-0.662,0.364-1.786,1.666c-1.169,1.312-2.479,3.156-3.704,5.232c-2.441,4.101-4.875,9.636-6.372,14.061
					c-1.858,5.508-6.703,9.172-12.115,9.815c-17.302,1.662-29.177,20.425-33.752,36.161c0,0-7.535,9.41-7.535,9.41
					c0.531-0.275-0.233,0.154-0.492,0.36c-16.974,13.063-18.203,36.55-15.048,56.889c3.755,21.646,15.51,41.982,31.779,56.772
					c0.963,0.874,2.323,2.009,2.834,2.399l-5.696-2.552c24.991,3.751,50.729,1.544,75.563-3.157
					c78.548-14.743,145.984-62.122,204.659-114.544c59.096-53.303,113.811-114.105,148.891-185.653
					c68.248-133.471-48.116-247.17-141.884-329.279c-80.056-71.868-183.934-106.673-285.272-137.454
					c-2.681-0.68-4.275-3.514-3.463-6.159C2535.906,1914.157,2537.759,1912.812,2539.785,1912.731L2539.785,1912.731z"/>
			</g>
			<g>
				<path style="fill:#020475;" d="M2973.59,2418.476c-4.961,0-9.619-3.071-11.396-8.01c-24.58-68.155-61.39-110.71-109.421-126.489
					c-81.136-26.637-169.376,31.499-170.255,32.092c-5.552,3.718-13.086,2.239-16.802-3.315c-3.726-5.552-2.256-13.068,3.296-16.799
					c3.989-2.681,98.694-65.318,191.177-35.046c55.551,18.188,97.537,65.741,124.797,141.34c2.27,6.294-0.991,13.237-7.285,15.505
					C2976.344,2418.244,2974.957,2418.476,2973.59,2418.476z"/>
			</g>
			<g>
				<path style="fill:#020475;" d="M2669.122,2299.135c8.423-23.715,26.138-43.705,47.042-57.321
					c20.496-12.482,44.613-22.747,68.798-16.942c4.674,1.933-13.673,9.505-14.941,10.478c-7.108,3.673-14.849,6.827-21.849,10.547
					c-22.5,12.673-41.423,31.738-53.13,54.738c-1.414,2.69-2.494,5.106-3.427,7.321
					C2685.231,2322.071,2664.232,2313.825,2669.122,2299.135L2669.122,2299.135z"/>
			</g>
			<g>
				<path style="fill:#020475;" d="M2653.034,2371.494c40.646-2.583,82.479,11.492,111.759,40.063
					c8.434,8.826,16.315,18.866,19.363,30.878c0.346,2.254,4.334,13.458-0.109,11.52c-21.358-15.404-35.803-32.506-60.094-41.224
					c-21.835-8.785-46.12-12.332-69.529-12.227C2635.751,2400.508,2634.44,2373.304,2653.034,2371.494L2653.034,2371.494z"/>
			</g>
			<g>
				<path style="fill:#020475;" d="M2573.941,2477.66c15.565-12.875,36.985-17.524,56.536-13.159l-16.531,8.453
					c7.609-15.243,19.704-27.775,35.819-34.243c31.994-13.176,65.979,6.896,82.61,32.911c8.565,12.938,16.004,26.706,0.666,37.788
					c-3.17,2.53-6.279,4.215-9.84,5.938l1.885-9.399c3.414,7.189,6.47,14.426,8.771,22.119c0.196,0.677-0.194,1.386-0.871,1.583
					c-6.735-3.158-13.216-10.931-18.808-16.111c-2.955-3.284-1.153-7.024,1.886-9.401c1.98-1.932,4.136-4.336,5.777-6.384
					c0.784-1.045,1.532-2.12,1.857-2.959c0.35-0.798,0.366-1.509,0.048-0.738c-0.126,0.283-0.171,0.608-0.129,0.914
					c-0.241,0.336,0.033,0.62-0.334,0.004l-0.339-0.641c-18.265-31.848-61.057-49.939-81.55-10.786
					c-2.71,6.801-9.756,10.833-16.722,9.701c-10.878-2.311-22.815,0.313-31.79,6.473
					C2578.083,2511.838,2559.677,2490.537,2573.941,2477.66L2573.941,2477.66z"/>
			</g>
			<g>
				<path style="fill:#020475;" d="M2641.777,2477.309c-3.099,24.027-2.542,50.04,7.165,72.684
					c3.141,7.833,7.202,14.899,9.916,24.954c0.247,0.824-0.584,1.655-1.406,1.403c-19.744-5.985-29.993-26.675-36.151-44.923
					c-5.963-19.324-7.378-39.233-3.217-59.197c1.432-6.526,7.883-10.656,14.41-9.225
					C2639.042,2464.419,2643.046,2470.888,2641.777,2477.309L2641.777,2477.309z"/>
			</g>
			<g>
				<path style="fill:#020475;" d="M2577.64,2514.127c-3.005,25.945-1.938,53.866,8.57,78.216
					c3.41,8.405,7.801,15.996,10.825,26.519c0.192,3.767-7.132-1.385-8.745-1.936c-15.977-9.485-24.622-27.8-30.398-44.826
					c-6.339-20.419-8.051-41.489-4.024-62.664c1.316-6.552,7.694-10.796,14.246-9.48
					C2574.693,2501.256,2578.823,2507.672,2577.64,2514.127L2577.64,2514.127z"/>
			</g>
			<g>
				<path style="fill:#020475;" d="M2528.965,2556.231c2.562,24.632,4.838,51.34,14.917,74.216
					c3.622,7.398,6.745,14.215,11.523,23.084c0.5,0.745-0.135,1.829-1.033,1.732c-5.172-0.383-10.147-2.387-14.406-5.375
					c-19.238-15.454-26.869-41.295-32.023-64.333c-1.832-9.394-3.038-18.482-3.193-28.467c-0.104-6.689,5.235-12.197,11.925-12.301
					C2523.216,2544.677,2528.604,2549.812,2528.965,2556.231L2528.965,2556.231z"/>
			</g>
		</g>
		<g style="opacity:0.25;">
			<path style="fill:#020475;" d="M2246.587,2415.685c0,0-26.507,86.024-189.496,140.976s-305.877,50.186-305.877,50.186
				l28.795-63.147c0,0,161.631-7.719,251.275-32.382S2246.587,2415.685,2246.587,2415.685z"/>
		</g>
		<g>
			<g>
				<g>
					<path style="fill:#706880;" d="M1691.045,2410.593c-7.81-108.999,67.536-169.496,67.536-169.496l68.968-4.848
						c0,0,13.724-4.689,30.207-10.631c8.174-6.859,16.842-15.239,16.604-19.816c0,0,12.287-125.214,12.441-156.332
						c0.156-31.118-1.526-51.953-4.583-56.537c-3.056-4.584-30.221-42.785-30.221-42.785s-96.714,16.299-154.979,91.682
						c-58.265,75.382-111.236,298.134-69.131,416.302c22.974,64.476,70.303,100.072,145.568,107.394
						C1770.553,2563.696,1698.697,2517.389,1691.045,2410.593z"/>
				</g>
				<g>
					<path style="fill:#0394ED;" d="M2316.516,2085.293c-14.262-12.904-210.528,58.93-220.035,51.876
						c-9.507-7.054,17.524-82.646-14.327-90.69c-31.853-8.045-91.615,73.449-133.721,180.072c0,0-35.524,9.752-104.689,9.969
						c0,0,6.815-4.863,14.012-10.902c-16.483,5.942-30.207,10.631-30.207,10.631l-68.968,4.848c0,0-75.346,60.497-67.536,169.496
						c7.652,106.797,79.508,153.103,82.41,154.932c62.675,6.097,144.702-7.391,248.362-40.33
						c228.145-72.496,250.93-124.789,255.157-183.872c4.228-59.084-29.729-143.083-29.729-143.083
						S2330.777,2098.196,2316.516,2085.293z"/>
				</g>
			</g>
			<g style="opacity:0.5;">
				<path style="fill:#FFFFFF;" d="M2318.154,2098.875c0,0-82.963,34.975-145.103,49.576c-62.14,14.601-75.888,6.791-79.71,0
					c-3.822-6.792,202.122-67.573,212.648-65.366C2316.516,2085.293,2318.154,2098.875,2318.154,2098.875z"/>
			</g>
			<g style="opacity:0.5;">
				<path style="fill:#FFFFFF;" d="M2082.153,2057.449c0,0-44.799,57.725-63.453,110.018
					c-18.654,52.292-22.729,82.945-43.103,90.369c-20.374,7.424-128.354,21.686-236.335,8.782l10.509-17.31
					c0,0,21.898-11.151,37.698-11.521c15.8-0.371,127.835-4.038,130.392-5.77s30.57-5.467,30.57-5.467s28.815-75.528,64.177-120.544
					c35.362-45.016,49.916-55.518,57.046-56.537C2076.786,2048.45,2082.153,2057.449,2082.153,2057.449z"/>
			</g>
			<g style="opacity:0.5;">
				<path style="fill:#FFFFFF;" d="M1616.725,2331.135c0,0,14.387-29.542,40.363-107.471
					c25.976-77.929,58.065-155.896,96.775-191.531c38.71-35.635,96.826-63.53,89.879-80.234
					c-2.423-5.827-111.708,38.497-155.075,101.135C1655.534,2100.892,1608.45,2245.566,1616.725,2331.135z"/>
			</g>
			<g style="opacity:0.25;">
				<path style="fill:#020475;" d="M1621.182,2254.637c0,0-27.913,186.176,172.758,214.529
					c200.671,28.353,483.034-115.621,483.034-115.621s15.093,50.934-103.074,110.018s-335.486,129.033-446.862,89.644
					C1615.662,2513.819,1593.301,2368.48,1621.182,2254.637z"/>
			</g>
			<g style="opacity:0.25;">
				<path style="fill:#020475;" d="M1792.573,2238.435c0.035-1.02,43.359-78.604,44.274-75.01
					c0.914,3.594,10.226,46.487,8.188,57.692c-2.037,11.206-8.659,17.318-8.659,17.318H1792.573z"/>
			</g>
			<g>
				<path style="fill:#020475;" d="M1852.802,1954.927c-56.63,21.619-113.061,52.751-148.363,103.284
					c-33.419,52.196-51.709,113.74-64.495,174.232c-16.93,92.851-32.472,238.583,59.76,295.894
					c87.731,50.39,224.932,10.981,316.668-16.673c70.024-23.71,143.917-46.319,203.263-91.18c-0.001-0.001,4.436-3.446,4.436-3.446
					c3.607-3.863,8.494-7.386,11.844-11.364c0,0,7.01-8.084,7.01-8.084c3.719-5.016,8.082-12.202,10.698-17.756
					c22.251-54.072-0.92-123.22-19.855-176.145c-2.033-5.136-0.948-10.775,2.318-14.768c23.753-29.918,49.16-59.705,65.844-93.84
					c1.094-2.455,1.791-5.47,1.673-5.241c0.016,0.089-0.038,0.673,0.294,1.783c0.174,2.363,4.386,6.457,6.951,6.72
					c-1.869-0.222-5.117,0.096-8.421,0.521c-47.28,8.278-97.539,25.958-144.305,39.235c-18.104,5.036-35.754,11.037-55.117,13.861
					c-2.967,0.323-6.333,0.431-9.925-0.541c-7.865-2.021-12.608-10.492-13.052-17.984c-0.873-15.963,2.735-30.356,3.388-45.568
					c0.139-9.158,1.422-20.462-3.85-26.889c-2.423-0.962-4.126-0.342-7.392,0.957c-46.002,25.575-90.829,120.489-109.778,170.13
					c-3.533,10.026-15.917,10.113-24.12,12.21c-13.427,2.674-27.013,4.465-40.582,5.561c-18.495,1.506-37.044,1.736-55.54,0.788
					c-7.396-0.414-13.056-6.744-12.643-14.139c0.609-6.013,0.909-12.627,1.345-19.063c0.608-12.534,1.01-25.09,0.856-37.67
					c-0.048-6.379-0.388-12.722-0.665-19.233c-0.117-2.733,2.004-5.042,4.737-5.16c1.944-0.083,3.676,0.972,4.554,2.567
					c6.529,12.042,10.593,25.306,13.294,38.653c2.764,13.581,4.119,26.617,4.287,40.644c0,0-14.222-14.896-14.222-14.896
					c33.522-2.21,67.877-3.562,100.758-10.253c0,0-9.99,8.963-9.99,8.963c11.253-27.259,23.671-54.028,37.761-80.073
					c14.264-25.965,29.917-51.298,50.053-74.577c11.268-12.395,22.068-23.703,38.405-31.162
					c16.385-8.273,39.124-2.505,46.608,15.143c8.868,20.057,4.902,41.419,2.996,61.6c-0.566,4.68-1.732,14.927-1.307,18.802
					c-0.753-3.675-5.922-7.594-9.873-7.656c-0.096-0.005,0.344-0.009,0.896-0.076c16.4-2.612,33.26-8.164,49.921-12.835
					c40.79-11.905,84.377-25.975,126.016-35.825c12.636-2.574,24.782-6.06,38.628-4.855c1.333,0.118,3.046,0.573,4.333,0.901
					c30.197,12.305,3.067,49.474-7.347,66.497c-16.582,24.946-34.432,47.813-53.152,70.636l2.319-14.765
					c6.177,15.814,11.246,31.192,15.873,47.145c16.073,56.322,27.956,125.136-10.639,175.399
					c-7.121,8.747-14.708,16.427-23.036,23.838c-3.121,2.648-11.98,9.192-15.264,11.863c-48,33.11-102.236,53.627-156.322,72.968
					c-46.197,15.904-92.591,30.442-140.407,41.244c-139.268,32.418-296.008,30.505-326.897-141.177
					c-15.664-98.666,2.518-198.442,32.193-292.561c25.22-78.401,63.533-136.254,142.112-169.02
					c23.379-9.308,47.517-15.957,72.853-17.122C1856.96,1945.174,1858.124,1953.319,1852.802,1954.927L1852.802,1954.927z"/>
			</g>
			<g>
				<path style="fill:#020475;" d="M1843.09,2251.043c-37.756,0.205-77.099-0.602-114.246,6.973c-11.349,2.745-25.617,5.77-37,9.486
					c-1.018,0.364-2.079-0.762-1.64-1.755c2.772-7.007,8.138-12.54,13.865-16.922c29.263-19.179,65.445-23.329,99.393-26.519
					c13.63-0.93,26.947-1.207,40.933-0.31c8.014,0.514,14.093,7.427,13.579,15.44
					C1857.481,2245.273,1850.829,2251.248,1843.09,2251.043L1843.09,2251.043z"/>
			</g>
			<g>
				<path style="fill:#020475;" d="M1773.582,2577.727c-2.168,0-4.36-0.581-6.343-1.799c-3.266-2.011-80.12-50.585-88.279-164.469
					c-8.174-114.026,68.758-177.176,72.039-179.81c5.22-4.187,12.842-3.352,17.031,1.863c4.185,5.21,3.354,12.822-1.841,17.014
					v0.002c-0.703,0.569-70.296,58.214-63.06,159.198c7.28,101.631,76.121,145.141,76.815,145.568
					c5.698,3.508,7.47,10.971,3.965,16.67C1781.619,2575.681,1777.65,2577.727,1773.582,2577.727z"/>
			</g>
		</g>
		<g>
			<g>
				<path style="fill:#9A4D39;" d="M2860.842,1066.074c58.001-62.003,91.333-159.82,91.333-159.82
					c-31.78,17.831-108.928-3.348-108.928-3.348c65.47-72.827,76.544-139.298,76.544-139.298
					c-20.015,8.737-90.559,6.023-141.808-28.438c-51.249-34.461-120.644-51.53-120.644-51.53
					c31.448-32.388,58.091-108.2,58.091-108.2s-74.8,6.637-189.77-36.484c-114.97-43.122-316.973-101.126-501.182-54.367
					c-184.21,46.76-340.207,205.047-340.207,205.047l-3.642-74.964c-82.735,43.748-107.573,145.774-107.573,145.774
					c-84.429,30.915-116.398,152.595-116.398,152.595c49.528-32.222,103.092-18.068,103.092-18.068
					c-218.429,316.307,57.364,739.499,57.364,739.499s7.307-121.77,50.161-208.778c44.822-91.002,73.34-66.035,76.062-214.603
					c0,0,273.375,59.406,416.969-8.15c0,0,309.21,112.178,464.531,24.448c0,0-0.361,53.89,50.112,149.481
					c44.315,83.929,70.715,233.783,70.715,233.783C2923.437,1350.689,2860.842,1066.074,2860.842,1066.074z"/>
			</g>
			<g style="opacity:0.5;">
				<path style="fill:#FFFFFF;" d="M2917.14,774.752c0,0-41.547,26.386-94.398,15.384c-52.85-11.002-84.492-39.743-137.188-57.598
					c-52.696-17.855-69.255-20.688-72.552-35.648c-3.297-14.96,43.933-61.423,50.721-84.178c0,0-67.381-3.811-165.707-41.615
					c-98.326-37.804-176.856-59.934-325.894-67.969c-149.038-8.035-354.575,80.126-354.575,80.126s136.039-100.004,315.355-114.915
					c179.316-14.911,386.893,68.434,386.893,68.434s76.518,28.098,119.458,33.185c42.94,5.087,75.565,7.179,75.565,7.179
					s-10.257,43.306-28.223,73.571c-17.966,30.265-18.513,34.392-18.513,34.392s56.799,15.357,109.9,50.07
					c53.102,34.713,131.086,29.654,131.086,29.654S2918.559,766.589,2917.14,774.752z"/>
			</g>
			<g style="opacity:0.25;">
				<path style="fill:#020475;" d="M2952.174,906.255c0,0-224.027,110.418-499.731,129.303c0,0,79.874-95.475,91.878-144.253
					c0,0-245.11,41.538-358.157,32.284c0,0,112.639-90.093,155.142-197.357c0,0-225.406,70.185-346.83,64.375
					c0,0,37.518-89.565,57.799-117.382c0,0-107.02,22.094-155.563,58.268c0,0,35.156-94.514,124.923-157.164
					c0,0-176.562,0.445-335.876,166.683c-26.693,19.286-52.099-22.356-42.11-92.03c0,0-21.183,6.294-31.194,24.784
					c-10.011,18.49-43.622,88.374-43.622,88.374s-76.114,27.775-109.689,142.6c0,0,70.194-30.703,100.607-9.766
					c0,0-62.924,99.141-78.418,193.272c0,0,45.987-51.034,79.901-79.267c0,0-20.144,95.069,3.196,186.437
					c0,0,35.478-62.794,75.075-94.074c0,0,29.249,226.366,14.188,340.414c0,0,55.492-82.939,78.953-134.743
					s10.691-95.92,10.691-95.92s159.544,27.846,282.515,16.299c122.971-11.547,188.38-54.549,197.913-52.489
					c9.533,2.059-52.581,29.154-52.581,29.154c271.649,102.114,416.658,41.624,453.654,23.335c0,0,19.995,80.464,21.648,84.993
					c7.55,20.694,49.088,108.902,51.876,115.539s47.422,159.07,47.422,159.07l17.121-2.823c0,0,68.501-129.12,96.201-253.676
					c27.701-124.556,1.737-264.42,1.737-264.42S2940.603,976.478,2952.174,906.255z"/>
			</g>
			<g>
				<path style="fill:#FFB598;" d="M2624.837,1227.392c-155.321,87.73-464.531-24.448-464.531-24.448
					c-143.594,67.555-416.969,8.15-416.969,8.15c-2.722,148.568-28.19,124.627-79.383,221.113
					c-45.458,85.676-46.84,202.268-46.84,202.268l-0.118,0.459c-0.44,2.206-1.514,13.704,8.208,59.586
					c32.188,151.933,142.046,275.956,288.512,322.323c128.838,40.786,251.492,35.085,251.492,35.085
					c579.726,2.411,580.457-441.272,580.457-441.272s-26.399-149.854-70.715-233.783
					C2624.476,1281.282,2624.837,1227.392,2624.837,1227.392z"/>
			</g>
			<g>
				<path style="fill:#FFB598;" d="M1566.06,1540.076c0,0-96.469-10.432-89.755,109.631
					c6.714,120.062,103.247,173.941,183.106,144.938"/>
			</g>
			<g>
				<path style="fill:#FFB598;" d="M2696.284,1791.944c0,0,134.266,31.886,170.105-107.995
					c36.047-140.693-69.471-161.436-69.471-161.436"/>
			</g>
			<g>
				<g style="opacity:0.25;">
					<path style="fill:#020475;" d="M1482.723,1601.285c-0.141-2.541-0.173-4.942-0.225-7.368
						c-4.929,14.446-7.486,32.68-6.193,55.79c6.715,120.063,103.248,173.941,183.106,144.938l-15.618-42.59
						C1569.216,1764.9,1488.83,1710.471,1482.723,1601.285z"/>
				</g>
				<g style="opacity:0.25;">
					<path style="fill:#020475;" d="M2872.807,1635.528c-29.617,115.598-126.387,113.887-159.115,109.81l-17.408,46.607
						c0,0,134.267,31.886,170.105-107.995c5.104-19.921,7.293-37.361,7.422-52.754
						C2873.461,1632.652,2873.188,1634.044,2872.807,1635.528z"/>
				</g>
			</g>
			<g>
				<path style="fill:#9A4D39;" d="M1616.996,1634.933l0.118-0.459C1617.114,1634.474,1617.062,1634.606,1616.996,1634.933z"/>
			</g>
			<g>
				<g style="opacity:0.25;">
					<path style="fill:#020475;" d="M1730.432,1126.684c-0.077,4.2-0.217,8.282-0.389,12.304c0.917-3.858,1.792-7.794,2.603-11.857
						C1731.214,1126.846,1730.432,1126.684,1730.432,1126.684z"/>
				</g>
				<g style="opacity:0.25;">
					<path style="fill:#020475;" d="M2745.653,1608.974c-28.29,125.474-138.807,371.236-570.701,369.439
						c0,0-122.654,5.701-251.492-35.085c-146.466-46.367-256.325-170.39-288.512-322.323c-9.722-45.882-8.647-57.38-8.208-59.586
						l0.118-0.459c0,0,0.726-54.951,7.089-119.204c-15.479,89.074-16.833,192.718-16.833,192.718l-0.118,0.459
						c-0.44,2.206-1.514,13.704,8.208,59.586c32.188,151.933,142.046,275.956,288.512,322.323
						c128.838,40.786,251.492,35.085,251.492,35.085c579.726,2.411,580.457-441.272,580.457-441.272
						S2745.664,1610.065,2745.653,1608.974z"/>
				</g>
			</g>
			<g>
				<path style="fill:#F83752;" d="M2141.4,1757.121c17.042-12.294,39.893-12.852,57.553-1.295
					c57.752,37.792,191.279,112.639,315.086,90.855c163.726-28.808,188.701-319.729,80.82-404.964
					c-101.875-80.488-221.421-78.379-389.833,40.411c-17.66,12.456-41.366,12.475-58.944-0.253
					c-53.551-38.776-175.818-112.378-311.951-93.972c-182.794,24.715-201.349,461.058,50.435,465.519
					C1990.555,1855.3,2093.375,1791.765,2141.4,1757.121z"/>
			</g>
			<g>
				<g style="opacity:0.5;">
					<path style="fill:#FFFFFF;" d="M1837.225,1420.623c136.134-18.406,258.402,55.197,311.951,93.972
						c17.579,12.728,41.285,12.709,58.944,0.253c168.412-118.79,287.959-120.9,389.833-40.411
						c33.525,26.488,54.21,72.844,61.898,125.021c-2.824-65.047-24.59-125.818-64.992-157.74
						c-101.875-80.489-221.421-78.379-389.833,40.411c-17.659,12.456-41.366,12.475-58.944-0.253
						c-53.55-38.775-175.817-112.378-311.951-93.972c-101.342,13.702-152.162,153.914-134.461,276.918
						C1694.387,1550.879,1744.788,1433.121,1837.225,1420.623z"/>
				</g>
			</g>
			<g>
				<g style="opacity:0.25;">
					<path style="fill:#020475;" d="M2660.127,1618.202c-1.258,103.356-49.539,211.491-146.087,228.479
						c-123.807,21.784-257.334-53.063-315.086-90.854c-17.661-11.557-40.511-10.999-57.554,1.295
						c-48.024,34.643-150.845,98.178-256.833,96.3c-121.406-2.151-179.937-104.715-187.532-213.126
						c-1.16,118.052,56.521,238.778,188.349,241.113c105.99,1.878,208.809-61.657,256.833-96.301
						c17.043-12.294,39.893-12.852,57.554-1.295c57.751,37.792,191.279,112.639,315.086,90.854
						C2620.179,1856.137,2668.072,1729.139,2660.127,1618.202z"/>
				</g>
			</g>
			<g>
				<g>
					<path style="fill:#020475;" d="M2439.06,1727.428l-16.862,1.439c-32.474,2.771-61.045-21.311-63.812-53.785l-6.616-77.647
						c-0.637-7.476,0.149-14.746,2.133-21.541c3.043-10.423,107.162-34.154,113.521-28.294
						c10.466,9.643,17.495,23.078,18.799,38.376l6.617,77.647C2495.607,1696.092,2471.53,1724.657,2439.06,1727.428z"/>
				</g>
				<g>
					
						<ellipse transform="matrix(0.9963 -0.0855 0.0855 0.9963 -126.1646 213.9252)" style="fill:#FFFFFF;" cx="2435.747" cy="1580.672" rx="27.721" ry="24.923"/>
				</g>
				<g style="opacity:0.5;">
					
						<ellipse transform="matrix(0.9963 -0.0855 0.0855 0.9963 -133.441 211.3859)" style="fill:#FFFFFF;" cx="2402.33" cy="1664.324" rx="16.659" ry="14.978"/>
				</g>
			</g>
			<g>
				<path style="fill:#020475;" d="M2147.851,2066.77c-39.184,0-136.315-3.711-238.525-36.068
					c-150.587-47.672-264.911-175.333-298.348-333.169c-7.217-34.062-8.887-50.792-8.774-59.42
					c-13.466-21.55-72.083-119.624-109.661-250.768c-52.997-184.964-38.32-350.595,42.269-480.805
					c-17.978-0.576-44.906,2.212-70.228,18.691c-5.039,3.271-11.572,3.118-16.44-0.4c-4.873-3.518-7.075-9.67-5.552-15.481
					c1.348-5.129,33.183-122.924,118.396-159.735c7.651-25.336,37.67-108.042,112.844-147.792c4.394-2.322,9.677-2.244,13.994,0.22
					c4.321,2.461,7.085,6.96,7.324,11.926l2.104,43.356c50.687-45.91,177.437-149.711,323.64-186.824
					c179.239-45.492,376.198,4.712,509.871,54.845c109.949,41.242,182.681,35.675,183.409,35.612
					c4.892-0.398,9.717,1.687,12.739,5.588c3.018,3.901,3.867,9.065,2.231,13.718c-0.957,2.73-20.507,57.853-46.747,95.44
					c25.336,7.944,68.294,23.598,103.694,47.404c49.105,33.022,114.236,33.132,127.883,27.177
					c4.883-2.124,10.547-1.418,14.756,1.858c4.204,3.279,6.274,8.596,5.4,13.857c-0.439,2.644-10.615,60.548-64.344,128.046
					c27.207,5.11,60.507,7.81,75.272-0.469c5.254-2.954,11.782-2.346,16.411,1.501c4.634,3.853,6.406,10.163,4.463,15.866
					c-1.357,3.997-33.11,95.977-89.402,159.491c8.828,47.702,46.122,304.048-116.433,544.844
					c-1.035,28.322-12.256,175.765-132.941,295.75c-103.758,103.154-257.582,155.443-457.226,155.446
					c-1.484,0-2.939-0.002-4.434-0.007C2163.696,2066.542,2157.543,2066.77,2147.851,2066.77z M1631.291,1637.675
					c-0.122,1.917-0.351,13.784,8.135,53.832c31.269,147.607,138.053,266.957,278.68,311.475
					c124.924,39.547,245.229,34.479,246.43,34.421c0.244-0.01,0.483-0.032,0.732-0.015c1.577,0.007,3.174,0.01,4.741,0.01
					c232.031,0,396.832-71.319,489.911-212.026c69.964-105.769,71.204-213.679,71.204-214.758c0.015-2.908,0.898-5.764,2.539-8.164
					c171.944-251.447,113.586-530.471,112.981-533.262c-1.025-4.67,0.317-9.553,3.584-13.044
					c37.367-39.948,64.457-96.358,78.128-128.835c-37.157,3.35-82.493-8.608-88.958-10.381c-4.863-1.335-8.686-5.093-10.102-9.929
					c-1.421-4.836-0.229-10.063,3.14-13.811c40.297-44.828,59.027-86.939,67.22-111.055c-35.141,2.195-89.197-7.602-129.782-34.897
					c-48.427-32.563-115.344-49.313-116.013-49.479c-5.058-1.247-9.062-5.105-10.498-10.11c-1.436-5.007-0.083-10.398,3.545-14.133
					c19.438-20.019,37.455-59.471,47.216-83.287c-31.147-0.947-92.625-7.297-173.57-37.658
					c-129.772-48.673-320.569-97.534-492.499-53.888c-177.999,45.182-331.902,199.607-333.435,201.163
					c-4.053,4.106-10.132,5.434-15.542,3.371c-5.391-2.06-9.053-7.112-9.331-12.873l-2.432-50.114
					c-60.028,44.53-79.925,122.81-80.14,123.676c-1.157,4.697-4.58,8.533-9.121,10.195c-50.697,18.564-81.238,74.774-96.14,110.842
					c42.465-13.994,79.603-4.538,81.551-4.023c4.575,1.208,8.281,4.573,9.922,9.013c1.641,4.443,1.016,9.406-1.675,13.303
					c-109.456,158.502-88.377,345.993-51.425,475.37c40.483,141.725,108.328,246.887,109.006,247.931
					C1631.452,1629.856,1632.15,1633.881,1631.291,1637.675z M1630.734,1639.553c-0.063,0.173-0.132,0.344-0.205,0.515
					C1630.602,1639.89,1630.671,1639.719,1630.734,1639.553z M1630.744,1639.519c0,0.005,0,0.01-0.005,0.015
					C1630.744,1639.528,1630.744,1639.523,1630.744,1639.519z"/>
			</g>
			<g>
				<path style="fill:#020475;" d="M1615.549,1816.966c-27.68,0-55.092-8.159-79.276-24.118
					c-44.545-29.391-70.995-79.94-74.486-142.331c-2.48-44.347,7.925-77.908,30.927-99.746
					c31.088-29.521,73.119-25.341,74.906-25.151c7.983,0.864,13.755,8.034,12.89,16.018c-0.859,7.964-7.983,13.737-15.952,12.898
					c-0.581-0.054-30.971-2.676-52.03,17.519c-16.377,15.708-23.681,41.559-21.708,76.842
					c2.964,52.977,24.789,95.484,61.468,119.685c30.751,20.29,67.987,24.804,102.161,12.4c7.524-2.742,15.883,1.152,18.628,8.701
					c2.739,7.546-1.157,15.888-8.706,18.628C1648.419,1814.104,1631.935,1816.966,1615.549,1816.966z"/>
			</g>
			<g>
				<path style="fill:#020475;" d="M2727.897,1809.366c-20.439,0-34.516-3.169-34.97-3.276c-7.813-1.855-12.641-9.692-10.786-17.505
					c1.851-7.803,9.687-12.624,17.47-10.793l0,0c4.932,1.143,120.92,26.559,152.697-97.451
					c11.426-44.611,9.004-80.413-7.207-106.416c-18.794-30.148-50.741-37.096-51.063-37.162
					c-7.832-1.628-12.915-9.284-11.328-17.124c1.582-7.839,9.194-12.932,17.011-11.391c1.787,0.352,44.037,9.067,69.73,49.779
					c20.864,33.061,24.57,76.641,11.02,129.531C2853.446,1793.04,2774.287,1809.366,2727.897,1809.366z"/>
			</g>
			<g>
				<path style="fill:#020475;" d="M1617.121,1649.008c-0.186,0-0.371-0.002-0.562-0.01c-8.022-0.305-14.277-7.051-13.974-15.073
					c0.19-5.164,5.288-127.48,51.854-215.056c7.681-14.445,16.308-25.981,24.658-37.138c24.55-32.824,47.743-63.827,49.706-170.904
					c0.078-4.351,2.104-8.435,5.517-11.135c3.408-2.703,7.847-3.723,12.104-2.805c2.681,0.581,270.258,57.567,407.691-7.099
					c3.501-1.645,7.51-1.833,11.147-0.51c3.032,1.096,304.754,108.862,452.426,25.456c4.365-2.466,9.682-2.507,14.082-0.12
					c4.404,2.39,7.266,6.877,7.578,11.875c0.034,0.559,4.56,60.599,52.675,151.725c44.931,85.093,67.083,224.309,68.006,230.193
					c1.24,7.932-4.184,15.368-12.114,16.611c-7.935,1.248-15.376-4.184-16.616-12.114c-0.215-1.394-22.338-140.339-64.989-221.113
					c-34.589-65.511-47.909-115.754-52.968-142.38c-152.721,67.872-409.742-16.035-452.353-30.805
					c-127.746,56.258-341.447,21.906-403.643,10.122c-4.399,102.818-30.087,137.158-54.969,170.421
					c-8.042,10.749-15.634,20.903-22.265,33.373c-43.393,81.605-48.427,201.302-48.475,202.5
					C1631.34,1642.856,1624.894,1649.008,1617.121,1649.008z"/>
			</g>
			<g>
				<path style="fill:#020475;" d="M2154.49,1189.619c22.516-10.904,45.71-20.286,69.097-29.149
					c24.427-8.24,46.402-20.259,73.347-20.182c1.096-0.037,1.773,1.374,1.027,2.193c-17.643,20.133-41.476,28.629-63.794,41.377
					c-22.273,11.633-44.83,22.787-68.046,32.41c-7.429,3.048-15.923-0.503-18.971-7.933
					C2144.174,1201.102,2147.494,1192.852,2154.49,1189.619L2154.49,1189.619z"/>
			</g>
			<g>
				<path style="fill:#020475;" d="M2618.327,1214.393c14.171-7.953,29.153-14.621,44.156-20.909
					c16.343-5.932,29.413-15.025,48.23-13.79c1,0.05,1.676,1.137,1.282,2.055c-7.672,17.564-23.391,24.093-37.459,34.399
					c-13.883,9.065-28.05,17.435-43.189,24.245C2614.414,1247.486,2602.547,1223.629,2618.327,1214.393L2618.327,1214.393z"/>
			</g>
			<g>
				<path style="fill:#020475;" d="M1889.21,1863.156c-1.606,0-3.208-0.015-4.814-0.044
					c-136.022-2.41-191.304-123.388-197.315-226.255c-6.709-114.883,42.094-244.543,145.754-258.559
					c136.916-18.535,258.588,52.03,318.933,95.725c14.15,10.251,33.31,10.312,47.675,0.186
					c162.985-114.963,290.531-127.712,401.427-40.097c68.622,54.217,81.453,174,58.661,264.301
					c-22.246,88.125-74.661,145.646-143.81,157.814c-15.61,2.746-31.396,3.989-47.147,3.992
					c-114.177,0.007-227.524-65.265-274.925-96.282c-14.375-9.404-32.651-8.999-46.576,1.045l0,0
					C2095.909,1801.888,1995.003,1863.154,1889.21,1863.156z M1878.263,1394.651c-14.072,0-28.369,0.901-42.831,2.856
					c-88.753,12.002-135.285,130.546-128.996,238.22c5.791,99.131,55.668,205.833,178.302,208.006
					c101.848,1.662,201.006-58.414,250.995-94.473l0,0c20.478-14.77,47.382-15.383,68.529-1.543
					c52.006,34.032,186.134,110.874,308.098,89.419c61.293-10.783,108.083-63.075,128.376-143.466
					c24.394-96.655,2.09-201.702-51.888-244.347c-104.544-82.601-221.196-70.04-378.234,40.727
					c-21.132,14.909-49.354,14.787-70.213-0.325C2088.839,1452.394,1990.858,1394.651,1878.263,1394.651z M2141.401,1757.121h0.049
					H2141.401z"/>
			</g>
			<g>
				<path style="fill:#020475;" d="M1525.709,1614.705c13.655-16.536,35.872-24.623,57.057-22.425
					c9.388,1.708,30.687,2.791,26.634,16.836c-1.345,3.856-4.888,6.107-8.701,6.296c-3.983,0.505-9.352,2.022-13.238,3.779
					c-37.098,17.39-13.142,66.635-2.505,95.213c1.474,3.394-3.336,6.245-5.581,3.255c-29.591-36.242-50.786-102.086,9.806-119.458
					c3.372-0.83,6.262-1.389,10.34-1.697l-2.99,18.224c-10.416-4.38-21.572-7.02-32.967-6.074
					c-11.548,0.553-23.361,4.739-33.332,10.665C1527.226,1621.637,1523.293,1617.619,1525.709,1614.705L1525.709,1614.705z"/>
			</g>
			<g>
				<path style="fill:#020475;" d="M2814.612,1617.47c-15.583-9.559-35.466-9.738-53.203-7.614c0,0,5.526-15.905,5.526-15.905
					c10.793,10.11,18.346,22.749,23.844,36.307c9.498,24.221,8.129,52.484-4.402,75.186c-2.596,4.937-6.021,9.382-9.111,13.86
					c-1.012,1.467-3.022,1.835-4.489,0.823c-1.354-0.933-1.71-2.64-1.099-4.067c6.834-18.401,11.265-38.719,7.458-58.142
					c-0.95-6.837-3.545-14.101-5.985-20.568c-4.756-11.106-12.082-22.342-19.953-31.17c-3.204-3.754-2.76-9.393,0.993-12.597
					c1.61-1.373,3.573-2.076,5.536-2.136c10.954-0.527,22.082,0.271,32.656,3.557c9.31,2.913,18.451,7.629,24.997,15.074
					c0.976,1.248,1.795,2.106,2.789,4.095c1.441,2.677-1.882,5.66-4.375,4.022C2815.794,1618.193,2814.612,1617.47,2814.612,1617.47
					L2814.612,1617.47z"/>
			</g>
			<g>
				<path style="fill:#020475;" d="M2377.694,1743.747c38.733-9.886,78.421-8.662,118.073-8.807c1.855,0.019,3.345,1.56,3.289,3.417
					c-0.037,1.273-0.79,2.36-1.857,2.886c-9.363,4.589-19.3,7.334-29.23,9.608c-19.848,4.143-40.077,5.767-60.273,4.524
					c-10.071-0.77-20.106-2.046-30.116-5.167C2374.424,1749.338,2374.534,1744.482,2377.694,1743.747L2377.694,1743.747z"/>
			</g>
			<g>
				<path style="fill:#020475;" d="M2333.914,1554.651c7.512,4.022,15.294,8.37,22.241,10.626c-0.055-0.006,0.408,0.105-0.275-0.049
					c-0.578-0.12-1.168-0.158-1.741-0.183c36.565-7.292,76.472-20.401,112.75-33.428c15.742-6.149,31.403-11.143,47.933-17.043
					c7.622,0.034-15.151,20.393-17.273,21.369c-21.331,15.527-45.981,25.475-70.008,35.727
					c-22.935,8.958-45.775,18.227-70.42,22.626c-3.844,0.67-9.124-0.436-12.715-1.809c-10.142-3.715-17.427-7.995-25.505-12.934
					C2302.896,1569.192,2317.293,1545.342,2333.914,1554.651L2333.914,1554.651z"/>
			</g>
			<g>
				<g>
					<path style="fill:#020475;" d="M1934.31,1727.428l16.862,1.439c32.474,2.771,61.045-21.311,63.812-53.785l6.616-77.647
						c0.637-7.476-0.149-14.746-2.133-21.541c-3.043-10.423-107.162-34.154-113.521-28.294
						c-10.466,9.643-17.495,23.078-18.799,38.376l-6.617,77.647C1877.764,1696.092,1901.841,1724.657,1934.31,1727.428z"/>
				</g>
				<g>
					
						<ellipse transform="matrix(0.0855 -0.9963 0.9963 0.0855 197.1278 3376.1069)" style="fill:#FFFFFF;" cx="1937.623" cy="1580.672" rx="24.923" ry="27.721"/>
				</g>
				<g style="opacity:0.5;">
					
						<ellipse transform="matrix(0.0855 -0.9963 0.9963 0.0855 144.3683 3485.9287)" style="fill:#FFFFFF;" cx="1971.041" cy="1664.324" rx="14.978" ry="16.66"/>
				</g>
			</g>
			<g>
				<path style="fill:#020475;" d="M1995.791,1750.207c-19.794,5.855-40.012,6.351-60.319,4.896
					c-20.252-1.703-40.661-5.068-59.3-13.861c-3.107-1.404-1.948-6.397,1.433-6.301
					C1884.59,1734.102,2017.469,1735.155,1995.791,1750.207L1995.791,1750.207z"/>
			</g>
			<g>
				<path style="fill:#020475;" d="M2054.469,1579.553c-9.174,5.568-18.945,11.399-30.55,14.407
					c-1.105,0.26-3.125,0.569-4.397,0.522c-8.909-0.328-16.271-3.019-24.33-5.178c-33.678-10.29-65.617-23.438-96.887-39.438
					c-15.599-8.291-31.412-18.046-41.276-33.429c-0.366-0.602-0.175-1.386,0.427-1.752c16.889,4.622,32.951,11.135,49.024,16.93
					c31.335,11.625,64.093,21.565,96.327,29.952c4.988,1.298,12.876,3.069,16.423,3.479c-0.578,0.025-1.161,0.063-1.741,0.183
					c5.068-1.639,15.354-6.883,22.4-10.815C2056.511,1545.758,2070.221,1569.41,2054.469,1579.553L2054.469,1579.553z"/>
			</g>
			<g>
				<path style="fill:#FFFFFF;" d="M2056.412,1928.925c0,0,128.354-23.769,249.238-8.828c0,0-52.972-73.345-55.688-73.345
					c-2.717,0-43.464,31.24-77.42,26.486c-33.956-4.754-82.853-19.774-82.853-19.774S2062.138,1886.651,2056.412,1928.925z"/>
			</g>
			<g>
				<path style="fill:#020475;" d="M2056.413,1938.618c-2.466,0-4.868-0.942-6.685-2.676c-2.251-2.144-3.335-5.237-2.92-8.318
					c6.025-44.516,34.223-78.909,35.424-80.352c2.5-3.015,6.582-4.219,10.302-3.074c0.479,0.149,48.563,14.848,81.351,19.438
					c23.608,3.313,53.724-14.978,65.047-21.862c5.805-3.528,7.763-4.717,11.03-4.717c6.196,0,7.671,0,63.543,77.364
					c2.256,3.125,2.446,7.29,0.488,10.608c-1.968,3.318-5.742,5.156-9.531,4.685c-117.927-14.582-245.019,8.506-246.289,8.743
					C2057.59,1938.564,2056.999,1938.618,2056.413,1938.618z M2093.385,1864.682c-6.264,8.828-18.725,28.474-24.809,52.438
					c34.072-5.188,125.451-16.828,216.445-8.928c-15.229-20.837-29.877-40.441-36.981-49.266
					c-14.658,8.896-47.021,28.083-76.839,23.911C2143.916,1879.015,2107.994,1868.959,2093.385,1864.682z"/>
			</g>
			<g>
				<path style="fill:#020475;" d="M2021.407,1912.55c2.316,7.596,2.059,14.786,1.475,22.237c-0.133,5.25-1.825,13.601,0.115,18.508
					c0.797,1.44,0.97,3.439-0.849,4.158c-14.761-0.93-15.543-24.82-11.694-35.311
					C2011.532,1918.985,2017.377,1905.318,2021.407,1912.55L2021.407,1912.55z"/>
			</g>
		</g>
	</g>
</g>
</svg>
